<!DOCTYPE svg PUBLIC "-//W3C//DTD SVG 1.1//EN" "http://www.w3.org/Graphics/SVG/1.1/DTD/svg11.dtd">
<!-- Uploaded to: SVG Repo, www.svgrepo.com, Transformed by: SVG Repo Mixer Tools -->
<svg height="800px" width="800px" version="1.1" id="Layer_1" xmlns="http://www.w3.org/2000/svg" xmlns:xlink="http://www.w3.org/1999/xlink" viewBox="0 0 512 512" xml:space="preserve" fill="#000000">
<g id="SVGRepo_bgCarrier" stroke-width="0"/>
<g id="SVGRepo_tracerCarrier" stroke-linecap="round" stroke-linejoin="round"/>
<g id="SVGRepo_iconCarrier"> <circle style="fill:#6a96bb;" cx="256" cy="256" r="256"/> <path style="fill:#336e9f;" d="M505.356,314.18L351.965,160.789l14.4,61.849L264.821,121.094l-72.318,18.542l-51.717,90.505 l33.475,129.515l144.512,144.577C411.246,480.923,483.712,407.307,505.356,314.18z"/> <path style="fill:#f6da58;" d="M264.819,121.094c-1.972-3.87-5.401-6.797-9.533-8.139l-83.477-27.1 c-6.303-2.046-13.212-0.093-17.513,4.944c-4.301,5.037-5.144,12.171-2.134,18.072l19.801,38.838 c-30.542,24.255-49.471,61.312-50.928,100.268c-1.562,41.796,16.772,82.573,49.042,109.078c3.848,3.162,8.497,4.703,13.117,4.703 c5.977,0,11.907-2.579,15.998-7.558c7.252-8.828,5.973-21.864-2.857-29.115c-22.345-18.353-35.038-46.601-33.956-75.562 c0.902-24.133,11.535-47.207,28.943-63.838l17.213,33.766c2.81,5.515,8.468,8.938,14.584,8.938c0.429,0,0.862-0.017,1.293-0.05 c6.604-0.522,12.243-4.968,14.288-11.269l27.102-83.478C267.148,129.458,266.793,124.964,264.819,121.094z"/> <path style="fill:#f6da58;" d="M340.932,361.903c7.67-6.096,14.748-13.045,21.061-20.844c22.597-27.919,32.97-62.964,29.206-98.685 c-3.25-30.853-17.184-59.828-39.234-81.586c-8.13-8.025-21.23-7.937-29.255,0.197c-8.025,8.132-7.937,21.23,0.197,29.255 c15.257,15.053,24.897,35.107,27.146,56.468c2.605,24.729-4.575,48.992-20.22,68.32c-2.574,3.179-5.337,6.147-8.251,8.923 l-17.23-33.799c-3.008-5.901-9.282-9.406-15.879-8.888c-6.604,0.522-12.243,4.968-14.288,11.269l-27.102,83.478 c-1.341,4.13-0.986,8.626,0.986,12.497c1.972,3.87,5.401,6.797,9.533,8.139l83.477,27.102c1.662,0.54,3.367,0.802,5.055,0.802 c4.71,0,9.292-2.036,12.459-5.746c4.301-5.037,5.144-12.171,2.134-18.072L340.932,361.903z"/> </g>
</svg>